<?xml version="1.0" encoding="UTF-8" standalone="no"?>
<!DOCTYPE svg PUBLIC "-//W3C//DTD SVG 1.1//EN" "http://www.w3.org/Graphics/SVG/1.1/DTD/svg11.dtd">
<svg version="1.1" xmlns="http://www.w3.org/2000/svg" xmlns:xlink="http://www.w3.org/1999/xlink" preserveAspectRatio="xMidYMid meet" viewBox="0 0 640 640" width="900" height="900"><defs><path d="M346.59 163.55C346.59 196.56 320.01 223.37 287.28 223.37C254.55 223.37 227.97 196.56 227.97 163.55C227.97 130.53 254.55 103.73 287.28 103.73C320.01 103.73 346.59 130.53 346.59 163.55Z" id="i1K4nxPZaS"></path><path d="M227.97 163.55L346.59 163.55L346.59 282.68L227.97 282.68L227.97 163.55Z" id="d1IYGfJbKt"></path><path d="M326.59 223.37C337.63 223.37 346.59 232.32 346.59 243.37C346.59 258.69 346.59 284.67 346.59 300C346.59 311.05 337.63 320 326.59 320C306.86 320 267.69 320 247.97 320C236.92 320 227.97 311.05 227.97 300C227.97 284.67 227.97 258.69 227.97 243.37C227.97 232.32 236.92 223.37 247.97 223.37C267.69 223.37 306.86 223.37 326.59 223.37Z" id="ahDAkIGlL"></path><path d="M344.29 282.68C354.59 282.68 362.95 291.03 362.95 301.34C362.95 305.07 362.95 297.61 362.95 301.34C362.95 311.64 354.59 320 344.29 320C332.88 320 317.34 320 305.94 320C295.63 320 287.28 311.64 287.28 301.34C287.28 297.61 287.28 305.07 287.28 301.34C287.28 291.03 295.63 282.68 305.94 282.68C317.34 282.68 332.88 282.68 344.29 282.68Z" id="bXAaQhI6f"></path><path d="M294.95 301.34C301.44 301.34 306.71 306.6 306.71 313.1C306.71 325.66 306.71 351.61 306.71 364.17C306.71 370.67 301.44 375.93 294.95 375.93C292.6 375.93 297.3 375.93 294.95 375.93C288.45 375.93 283.19 370.67 283.19 364.17C283.19 351.61 283.19 325.66 283.19 313.1C283.19 306.6 288.45 301.34 294.95 301.34C297.3 301.34 292.6 301.34 294.95 301.34Z" id="g1xb1uchFI"></path><path d="M265.86 301.34C272.36 301.34 277.62 306.6 277.62 313.1C277.62 325.66 277.62 351.61 277.62 364.17C277.62 370.67 272.36 375.93 265.86 375.93C263.51 375.93 268.22 375.93 265.86 375.93C259.37 375.93 254.11 370.67 254.11 364.17C254.11 351.61 254.11 325.66 254.11 313.1C254.11 306.6 259.37 301.34 265.86 301.34C268.22 301.34 263.51 301.34 265.86 301.34Z" id="a1huC7lWB3"></path><path d="M232.57 154.04C237.37 154.04 241.26 157.93 241.26 162.73C241.26 164.47 241.26 160.99 241.26 162.73C241.26 167.53 237.37 171.42 232.57 171.42C224.29 171.42 208.13 171.42 199.85 171.42C195.05 171.42 191.16 167.53 191.16 162.73C191.16 160.99 191.16 164.47 191.16 162.73C191.16 157.93 195.05 154.04 199.85 154.04C208.13 154.04 224.29 154.04 232.57 154.04Z" id="bhhbnwFqp"></path><path d="M232.57 173.11C237.37 173.11 241.26 177 241.26 181.8C241.26 183.54 241.26 180.06 241.26 181.8C241.26 186.6 237.37 190.49 232.57 190.49C224.29 190.49 208.13 190.49 199.85 190.49C195.05 190.49 191.16 186.6 191.16 181.8C191.16 180.06 191.16 183.54 191.16 181.8C191.16 177 195.05 173.11 199.85 173.11C208.13 173.11 224.29 173.11 232.57 173.11Z" id="jpABrnR07"></path><path d="M276.54 144.84C279.08 144.84 281.14 146.9 281.14 149.44C281.14 150.36 281.14 148.52 281.14 149.44C281.14 151.98 279.08 154.04 276.54 154.04C269.49 154.04 252.92 154.04 245.86 154.04C243.32 154.04 241.26 151.98 241.26 149.44C241.26 148.52 241.26 150.36 241.26 149.44C241.26 146.9 243.32 144.84 245.86 144.84C252.92 144.84 269.49 144.84 276.54 144.84Z" id="f2yNvWpnZw"></path><path d="M327.16 144.84C329.7 144.84 331.76 146.9 331.76 149.44C331.76 150.36 331.76 148.52 331.76 149.44C331.76 151.98 329.7 154.04 327.16 154.04C320.1 154.04 303.54 154.04 296.48 154.04C293.94 154.04 291.88 151.98 291.88 149.44C291.88 148.52 291.88 150.36 291.88 149.44C291.88 146.9 293.94 144.84 296.48 144.84C303.54 144.84 320.1 144.84 327.16 144.84Z" id="a1z2V9i7g2"></path></defs><g><g><g><use xlink:href="#i1K4nxPZaS" opacity="1" fill="#000000" fill-opacity="1"></use></g><g><use xlink:href="#d1IYGfJbKt" opacity="1" fill="#000000" fill-opacity="1"></use></g><g><use xlink:href="#ahDAkIGlL" opacity="1" fill="#000000" fill-opacity="1"></use></g><g><use xlink:href="#bXAaQhI6f" opacity="1" fill="#000000" fill-opacity="1"></use></g><g><use xlink:href="#g1xb1uchFI" opacity="1" fill="#060606" fill-opacity="1"></use></g><g><use xlink:href="#a1huC7lWB3" opacity="1" fill="#000000" fill-opacity="1"></use></g><g><use xlink:href="#bhhbnwFqp" opacity="1" fill="#000000" fill-opacity="1"></use></g><g><use xlink:href="#jpABrnR07" opacity="1" fill="#000000" fill-opacity="1"></use></g><g><use xlink:href="#f2yNvWpnZw" opacity="1" fill="#ffffff" fill-opacity="1"></use></g><g><use xlink:href="#a1z2V9i7g2" opacity="1" fill="#ffffff" fill-opacity="1"></use></g></g></g></svg>